<mxfile host="app.diagrams.net" modified="2024-02-09T23:12:04.681Z" agent="Mozilla/5.0 (Windows NT 10.0; Win64; x64; rv:122.0) Gecko/20100101 Firefox/122.0" etag="EU-dfTV6HeQdJ5CaUyL0" version="23.1.2" type="device">
  <diagram id="R2lEEEUBdFMjLlhIrx00" name="Page-1">
    <mxGraphModel dx="742" dy="821" grid="1" gridSize="10" guides="1" tooltips="1" connect="1" arrows="1" fold="1" page="1" pageScale="1" pageWidth="850" pageHeight="1100" math="0" shadow="0" extFonts="Permanent Marker^https://fonts.googleapis.com/css?family=Permanent+Marker">
      <root>
        <mxCell id="0" />
        <mxCell id="1" parent="0" />
        <mxCell id="C-vyLk0tnHw3VtMMgP7b-12" value="" style="edgeStyle=entityRelationEdgeStyle;endArrow=ERzeroToMany;startArrow=ERone;endFill=1;startFill=0;" parent="1" target="C-vyLk0tnHw3VtMMgP7b-17" edge="1">
          <mxGeometry width="100" height="100" relative="1" as="geometry">
            <mxPoint x="700" y="165" as="sourcePoint" />
            <mxPoint x="460" y="205" as="targetPoint" />
          </mxGeometry>
        </mxCell>
        <mxCell id="zpDfuHJKqXzspEZUBGu4-1" value="&lt;div&gt;Farma.&lt;/div&gt;&lt;div&gt;kompanija&lt;br&gt;&lt;/div&gt;" style="whiteSpace=wrap;html=1;align=center;fontSize=16;" vertex="1" parent="1">
          <mxGeometry x="230" y="130" width="100" height="40" as="geometry" />
        </mxCell>
        <mxCell id="zpDfuHJKqXzspEZUBGu4-2" value="Apoteka" style="whiteSpace=wrap;html=1;align=center;fontSize=16;" vertex="1" parent="1">
          <mxGeometry x="230" y="360" width="100" height="40" as="geometry" />
        </mxCell>
        <mxCell id="zpDfuHJKqXzspEZUBGu4-4" value="" style="edgeStyle=none;curved=1;rounded=0;orthogonalLoop=1;jettySize=auto;html=1;fontSize=12;startSize=8;endSize=8;" edge="1" parent="1" source="zpDfuHJKqXzspEZUBGu4-3" target="zpDfuHJKqXzspEZUBGu4-1">
          <mxGeometry relative="1" as="geometry" />
        </mxCell>
        <mxCell id="zpDfuHJKqXzspEZUBGu4-5" value="" style="edgeStyle=none;curved=1;rounded=0;orthogonalLoop=1;jettySize=auto;html=1;fontSize=12;startSize=8;endSize=8;" edge="1" parent="1" source="zpDfuHJKqXzspEZUBGu4-3" target="zpDfuHJKqXzspEZUBGu4-2">
          <mxGeometry relative="1" as="geometry" />
        </mxCell>
        <mxCell id="zpDfuHJKqXzspEZUBGu4-3" value="ima ugvor" style="shape=rhombus;perimeter=rhombusPerimeter;whiteSpace=wrap;html=1;align=center;fontSize=16;" vertex="1" parent="1">
          <mxGeometry x="220" y="240" width="120" height="60" as="geometry" />
        </mxCell>
        <mxCell id="zpDfuHJKqXzspEZUBGu4-6" value="0, N" style="text;html=1;align=center;verticalAlign=middle;resizable=0;points=[];autosize=1;strokeColor=none;fillColor=none;fontSize=16;" vertex="1" parent="1">
          <mxGeometry x="280" y="170" width="50" height="30" as="geometry" />
        </mxCell>
        <mxCell id="zpDfuHJKqXzspEZUBGu4-7" value="1, N" style="text;html=1;align=center;verticalAlign=middle;resizable=0;points=[];autosize=1;strokeColor=none;fillColor=none;fontSize=16;" vertex="1" parent="1">
          <mxGeometry x="280" y="330" width="50" height="30" as="geometry" />
        </mxCell>
        <mxCell id="zpDfuHJKqXzspEZUBGu4-9" style="edgeStyle=none;curved=1;rounded=0;orthogonalLoop=1;jettySize=auto;html=1;exitX=0.5;exitY=1;exitDx=0;exitDy=0;entryX=0;entryY=1;entryDx=0;entryDy=0;fontSize=12;startSize=8;endSize=8;" edge="1" source="zpDfuHJKqXzspEZUBGu4-11" parent="1">
          <mxGeometry relative="1" as="geometry">
            <mxPoint x="230" y="170" as="targetPoint" />
          </mxGeometry>
        </mxCell>
        <mxCell id="zpDfuHJKqXzspEZUBGu4-10" style="edgeStyle=none;curved=1;rounded=0;orthogonalLoop=1;jettySize=auto;html=1;exitX=0.5;exitY=0;exitDx=0;exitDy=0;entryX=0;entryY=0;entryDx=0;entryDy=0;fontSize=12;startSize=8;endSize=8;" edge="1" source="zpDfuHJKqXzspEZUBGu4-11" parent="1">
          <mxGeometry relative="1" as="geometry">
            <mxPoint x="230" y="130" as="targetPoint" />
          </mxGeometry>
        </mxCell>
        <mxCell id="zpDfuHJKqXzspEZUBGu4-11" value="&lt;div&gt;ima&lt;/div&gt;&lt;div&gt;podredjenu&lt;br&gt;&lt;/div&gt;" style="shape=rhombus;perimeter=rhombusPerimeter;whiteSpace=wrap;html=1;align=center;fontSize=16;" vertex="1" parent="1">
          <mxGeometry x="10" y="120" width="120" height="60" as="geometry" />
        </mxCell>
        <mxCell id="zpDfuHJKqXzspEZUBGu4-12" value="kompanija" style="text;html=1;align=center;verticalAlign=middle;resizable=0;points=[];autosize=1;strokeColor=none;fillColor=none;fontSize=16;" vertex="1" parent="1">
          <mxGeometry x="80" y="90" width="100" height="30" as="geometry" />
        </mxCell>
        <mxCell id="zpDfuHJKqXzspEZUBGu4-13" value="podkompanija" style="text;html=1;align=center;verticalAlign=middle;resizable=0;points=[];autosize=1;strokeColor=none;fillColor=none;fontSize=16;" vertex="1" parent="1">
          <mxGeometry x="75" y="180" width="120" height="30" as="geometry" />
        </mxCell>
        <mxCell id="zpDfuHJKqXzspEZUBGu4-14" value="0, N" style="text;html=1;align=center;verticalAlign=middle;resizable=0;points=[];autosize=1;strokeColor=none;fillColor=none;fontSize=16;" vertex="1" parent="1">
          <mxGeometry x="195" y="98" width="50" height="30" as="geometry" />
        </mxCell>
        <mxCell id="zpDfuHJKqXzspEZUBGu4-15" value="0, 1" style="text;html=1;align=center;verticalAlign=middle;resizable=0;points=[];autosize=1;strokeColor=none;fillColor=none;fontSize=16;" vertex="1" parent="1">
          <mxGeometry x="195" y="178" width="50" height="30" as="geometry" />
        </mxCell>
        <mxCell id="zpDfuHJKqXzspEZUBGu4-17" value="Lek" style="shape=ext;margin=3;double=1;whiteSpace=wrap;html=1;align=center;fontSize=16;" vertex="1" parent="1">
          <mxGeometry x="560" y="130" width="100" height="40" as="geometry" />
        </mxCell>
        <mxCell id="zpDfuHJKqXzspEZUBGu4-19" value="" style="edgeStyle=none;curved=1;rounded=0;orthogonalLoop=1;jettySize=auto;html=1;fontSize=12;shape=link;" edge="1" parent="1" source="zpDfuHJKqXzspEZUBGu4-18" target="zpDfuHJKqXzspEZUBGu4-17">
          <mxGeometry relative="1" as="geometry" />
        </mxCell>
        <mxCell id="zpDfuHJKqXzspEZUBGu4-20" value="" style="edgeStyle=none;curved=1;rounded=0;orthogonalLoop=1;jettySize=auto;html=1;fontSize=12;startSize=8;endSize=8;entryX=1;entryY=0.5;entryDx=0;entryDy=0;" edge="1" parent="1" source="zpDfuHJKqXzspEZUBGu4-18" target="zpDfuHJKqXzspEZUBGu4-1">
          <mxGeometry relative="1" as="geometry" />
        </mxCell>
        <mxCell id="zpDfuHJKqXzspEZUBGu4-18" value="proizvodi" style="shape=rhombus;double=1;perimeter=rhombusPerimeter;whiteSpace=wrap;html=1;align=center;fontSize=16;" vertex="1" parent="1">
          <mxGeometry x="390" y="118" width="120" height="60" as="geometry" />
        </mxCell>
        <mxCell id="zpDfuHJKqXzspEZUBGu4-21" value="1, N" style="text;html=1;align=center;verticalAlign=middle;resizable=0;points=[];autosize=1;strokeColor=none;fillColor=none;fontSize=16;" vertex="1" parent="1">
          <mxGeometry x="325" y="118" width="50" height="30" as="geometry" />
        </mxCell>
        <mxCell id="zpDfuHJKqXzspEZUBGu4-25" value="1, N" style="text;html=1;align=center;verticalAlign=middle;resizable=0;points=[];autosize=1;strokeColor=none;fillColor=none;fontSize=16;" vertex="1" parent="1">
          <mxGeometry x="325" y="350" width="50" height="30" as="geometry" />
        </mxCell>
        <mxCell id="zpDfuHJKqXzspEZUBGu4-26" value="0, N" style="text;html=1;align=center;verticalAlign=middle;resizable=0;points=[];autosize=1;strokeColor=none;fillColor=none;fontSize=16;" vertex="1" parent="1">
          <mxGeometry x="555" y="178" width="50" height="30" as="geometry" />
        </mxCell>
        <mxCell id="zpDfuHJKqXzspEZUBGu4-29" value="" style="edgeStyle=none;curved=1;rounded=0;orthogonalLoop=1;jettySize=auto;html=1;fontSize=12;startSize=8;endSize=8;entryX=0.5;entryY=1;entryDx=0;entryDy=0;" edge="1" parent="1" source="zpDfuHJKqXzspEZUBGu4-28" target="zpDfuHJKqXzspEZUBGu4-2">
          <mxGeometry relative="1" as="geometry" />
        </mxCell>
        <mxCell id="zpDfuHJKqXzspEZUBGu4-30" style="edgeStyle=none;curved=1;rounded=0;orthogonalLoop=1;jettySize=auto;html=1;exitX=0.5;exitY=1;exitDx=0;exitDy=0;entryX=0.5;entryY=0;entryDx=0;entryDy=0;fontSize=12;startSize=8;endSize=8;" edge="1" parent="1" source="zpDfuHJKqXzspEZUBGu4-28">
          <mxGeometry relative="1" as="geometry">
            <mxPoint x="280" y="570" as="targetPoint" />
          </mxGeometry>
        </mxCell>
        <mxCell id="zpDfuHJKqXzspEZUBGu4-28" value="radi" style="shape=rhombus;perimeter=rhombusPerimeter;whiteSpace=wrap;html=1;align=center;fontSize=16;" vertex="1" parent="1">
          <mxGeometry x="220" y="450" width="120" height="60" as="geometry" />
        </mxCell>
        <mxCell id="zpDfuHJKqXzspEZUBGu4-31" value="1, 1" style="text;html=1;align=center;verticalAlign=middle;resizable=0;points=[];autosize=1;strokeColor=none;fillColor=none;fontSize=16;" vertex="1" parent="1">
          <mxGeometry x="275" y="540" width="50" height="30" as="geometry" />
        </mxCell>
        <mxCell id="zpDfuHJKqXzspEZUBGu4-32" value="1, N" style="text;html=1;align=center;verticalAlign=middle;resizable=0;points=[];autosize=1;strokeColor=none;fillColor=none;fontSize=16;" vertex="1" parent="1">
          <mxGeometry x="275" y="400" width="50" height="30" as="geometry" />
        </mxCell>
        <mxCell id="zpDfuHJKqXzspEZUBGu4-33" value="" style="edgeStyle=orthogonalEdgeStyle;rounded=0;orthogonalLoop=1;jettySize=auto;html=1;fontSize=12;curved=1;startSize=8;endSize=8;" edge="1" source="zpDfuHJKqXzspEZUBGu4-34" target="zpDfuHJKqXzspEZUBGu4-44" parent="1">
          <mxGeometry relative="1" as="geometry" />
        </mxCell>
        <mxCell id="zpDfuHJKqXzspEZUBGu4-34" value="IS-A" style="shape=rhombus;double=1;perimeter=rhombusPerimeter;whiteSpace=wrap;html=1;align=center;fontSize=16;" vertex="1" parent="1">
          <mxGeometry x="220" y="670" width="120" height="60" as="geometry" />
        </mxCell>
        <mxCell id="zpDfuHJKqXzspEZUBGu4-73" style="edgeStyle=none;curved=1;rounded=0;orthogonalLoop=1;jettySize=auto;html=1;exitX=0.5;exitY=1;exitDx=0;exitDy=0;fontSize=12;startSize=8;endSize=8;" edge="1" parent="1" source="zpDfuHJKqXzspEZUBGu4-35" target="zpDfuHJKqXzspEZUBGu4-67">
          <mxGeometry relative="1" as="geometry">
            <mxPoint x="130" y="920" as="targetPoint" />
            <Array as="points">
              <mxPoint x="130" y="860" />
              <mxPoint x="130" y="900" />
              <mxPoint x="130" y="910" />
            </Array>
          </mxGeometry>
        </mxCell>
        <mxCell id="zpDfuHJKqXzspEZUBGu4-35" value="komerc." style="shape=ext;margin=3;double=1;whiteSpace=wrap;html=1;align=center;fontSize=16;" vertex="1" parent="1">
          <mxGeometry x="80" y="800" width="100" height="40" as="geometry" />
        </mxCell>
        <mxCell id="zpDfuHJKqXzspEZUBGu4-55" style="edgeStyle=none;curved=1;rounded=0;orthogonalLoop=1;jettySize=auto;html=1;exitX=1;exitY=0;exitDx=0;exitDy=0;entryX=0.5;entryY=1;entryDx=0;entryDy=0;fontSize=12;startSize=8;endSize=8;" edge="1" parent="1" source="zpDfuHJKqXzspEZUBGu4-36" target="zpDfuHJKqXzspEZUBGu4-54">
          <mxGeometry relative="1" as="geometry" />
        </mxCell>
        <mxCell id="zpDfuHJKqXzspEZUBGu4-36" value="farm.tehn." style="shape=ext;margin=3;double=1;whiteSpace=wrap;html=1;align=center;fontSize=16;" vertex="1" parent="1">
          <mxGeometry x="380" y="800" width="100" height="40" as="geometry" />
        </mxCell>
        <mxCell id="zpDfuHJKqXzspEZUBGu4-37" value="" style="edgeStyle=none;curved=1;rounded=0;orthogonalLoop=1;jettySize=auto;html=1;exitX=0.5;exitY=1;exitDx=0;exitDy=0;fontSize=12;startSize=8;endSize=8;" edge="1" source="zpDfuHJKqXzspEZUBGu4-34" parent="1">
          <mxGeometry relative="1" as="geometry">
            <mxPoint x="280" y="760" as="targetPoint" />
            <mxPoint x="280" y="730" as="sourcePoint" />
          </mxGeometry>
        </mxCell>
        <mxCell id="zpDfuHJKqXzspEZUBGu4-38" value="" style="endArrow=none;html=1;rounded=0;fontSize=12;startSize=8;endSize=8;curved=1;" edge="1" parent="1">
          <mxGeometry relative="1" as="geometry">
            <mxPoint x="130" y="760" as="sourcePoint" />
            <mxPoint x="430" y="760" as="targetPoint" />
          </mxGeometry>
        </mxCell>
        <mxCell id="zpDfuHJKqXzspEZUBGu4-39" value="" style="endArrow=none;html=1;rounded=0;fontSize=12;startSize=8;endSize=8;curved=1;entryX=0.5;entryY=0;entryDx=0;entryDy=0;" edge="1" target="zpDfuHJKqXzspEZUBGu4-36" parent="1">
          <mxGeometry relative="1" as="geometry">
            <mxPoint x="430" y="760" as="sourcePoint" />
            <mxPoint x="550" y="699.5" as="targetPoint" />
          </mxGeometry>
        </mxCell>
        <mxCell id="zpDfuHJKqXzspEZUBGu4-40" value="" style="endArrow=none;html=1;rounded=0;fontSize=12;startSize=8;endSize=8;curved=1;exitX=0.5;exitY=0;exitDx=0;exitDy=0;" edge="1" source="zpDfuHJKqXzspEZUBGu4-35" parent="1">
          <mxGeometry relative="1" as="geometry">
            <mxPoint x="40" y="760" as="sourcePoint" />
            <mxPoint x="130" y="760" as="targetPoint" />
          </mxGeometry>
        </mxCell>
        <mxCell id="zpDfuHJKqXzspEZUBGu4-41" value="" style="endArrow=none;html=1;rounded=0;fontSize=12;startSize=8;endSize=8;curved=1;exitX=0.5;exitY=0;exitDx=0;exitDy=0;" edge="1" parent="1">
          <mxGeometry relative="1" as="geometry">
            <mxPoint x="280" y="800" as="sourcePoint" />
            <mxPoint x="279.5" y="760" as="targetPoint" />
          </mxGeometry>
        </mxCell>
        <mxCell id="zpDfuHJKqXzspEZUBGu4-42" value="farm. inz." style="shape=ext;margin=3;double=1;whiteSpace=wrap;html=1;align=center;fontSize=16;" vertex="1" parent="1">
          <mxGeometry x="230" y="800" width="100" height="40" as="geometry" />
        </mxCell>
        <mxCell id="zpDfuHJKqXzspEZUBGu4-43" value="&lt;font style=&quot;font-size: 14px;&quot;&gt;1, 1&lt;/font&gt;" style="text;html=1;align=center;verticalAlign=middle;resizable=0;points=[];autosize=1;strokeColor=none;fillColor=none;fontSize=16;" vertex="1" parent="1">
          <mxGeometry x="275" y="733" width="50" height="30" as="geometry" />
        </mxCell>
        <mxCell id="zpDfuHJKqXzspEZUBGu4-44" value="&lt;font style=&quot;font-size: 16px;&quot;&gt;Radnik&lt;/font&gt;" style="whiteSpace=wrap;html=1;align=center;fontSize=16;" vertex="1" parent="1">
          <mxGeometry x="230" y="570" width="100" height="40" as="geometry" />
        </mxCell>
        <mxCell id="zpDfuHJKqXzspEZUBGu4-53" value="1, 1" style="text;html=1;align=center;verticalAlign=middle;resizable=0;points=[];autosize=1;strokeColor=none;fillColor=none;fontSize=16;" vertex="1" parent="1">
          <mxGeometry x="275" y="610" width="50" height="30" as="geometry" />
        </mxCell>
        <mxCell id="zpDfuHJKqXzspEZUBGu4-56" style="edgeStyle=none;curved=1;rounded=0;orthogonalLoop=1;jettySize=auto;html=1;exitX=0.5;exitY=0;exitDx=0;exitDy=0;entryX=0.707;entryY=1.033;entryDx=0;entryDy=0;fontSize=12;startSize=8;endSize=8;entryPerimeter=0;" edge="1" parent="1" source="zpDfuHJKqXzspEZUBGu4-54" target="zpDfuHJKqXzspEZUBGu4-59">
          <mxGeometry relative="1" as="geometry">
            <mxPoint x="480" y="285" as="targetPoint" />
          </mxGeometry>
        </mxCell>
        <mxCell id="zpDfuHJKqXzspEZUBGu4-54" value="izdaje" style="shape=rhombus;perimeter=rhombusPerimeter;whiteSpace=wrap;html=1;align=center;fontSize=16;" vertex="1" parent="1">
          <mxGeometry x="420" y="490" width="120" height="60" as="geometry" />
        </mxCell>
        <mxCell id="zpDfuHJKqXzspEZUBGu4-57" value="0, N" style="text;html=1;align=center;verticalAlign=middle;resizable=0;points=[];autosize=1;strokeColor=none;fillColor=none;fontSize=16;" vertex="1" parent="1">
          <mxGeometry x="435" y="768" width="50" height="30" as="geometry" />
        </mxCell>
        <mxCell id="zpDfuHJKqXzspEZUBGu4-58" value="0, N" style="text;html=1;align=center;verticalAlign=middle;resizable=0;points=[];autosize=1;strokeColor=none;fillColor=none;fontSize=16;" vertex="1" parent="1">
          <mxGeometry x="435" y="300" width="50" height="30" as="geometry" />
        </mxCell>
        <mxCell id="zpDfuHJKqXzspEZUBGu4-60" style="edgeStyle=none;curved=1;rounded=0;orthogonalLoop=1;jettySize=auto;html=1;exitX=0;exitY=1;exitDx=0;exitDy=0;fontSize=12;startSize=8;endSize=8;entryX=1;entryY=0;entryDx=0;entryDy=0;" edge="1" parent="1" source="zpDfuHJKqXzspEZUBGu4-59" target="zpDfuHJKqXzspEZUBGu4-2">
          <mxGeometry relative="1" as="geometry">
            <Array as="points">
              <mxPoint x="340" y="330" />
            </Array>
          </mxGeometry>
        </mxCell>
        <mxCell id="zpDfuHJKqXzspEZUBGu4-61" style="edgeStyle=none;curved=1;rounded=0;orthogonalLoop=1;jettySize=auto;html=1;exitX=1;exitY=0;exitDx=0;exitDy=0;entryX=0;entryY=1;entryDx=0;entryDy=0;fontSize=12;startSize=8;endSize=8;" edge="1" parent="1" source="zpDfuHJKqXzspEZUBGu4-59" target="zpDfuHJKqXzspEZUBGu4-17">
          <mxGeometry relative="1" as="geometry" />
        </mxCell>
        <mxCell id="zpDfuHJKqXzspEZUBGu4-59" value="Ponuda" style="shape=associativeEntity;whiteSpace=wrap;html=1;align=center;fontSize=16;" vertex="1" parent="1">
          <mxGeometry x="380" y="230" width="140" height="60" as="geometry" />
        </mxCell>
        <mxCell id="zpDfuHJKqXzspEZUBGu4-62" value="Nabavka" style="shape=ext;margin=3;double=1;whiteSpace=wrap;html=1;align=center;fontSize=16;" vertex="1" parent="1">
          <mxGeometry x="650" y="460" width="100" height="40" as="geometry" />
        </mxCell>
        <mxCell id="zpDfuHJKqXzspEZUBGu4-64" value="" style="edgeStyle=none;curved=1;rounded=0;orthogonalLoop=1;jettySize=auto;html=1;fontSize=12;shape=link;" edge="1" parent="1" source="zpDfuHJKqXzspEZUBGu4-63" target="zpDfuHJKqXzspEZUBGu4-62">
          <mxGeometry relative="1" as="geometry" />
        </mxCell>
        <mxCell id="zpDfuHJKqXzspEZUBGu4-65" style="edgeStyle=none;curved=1;rounded=0;orthogonalLoop=1;jettySize=auto;html=1;exitX=0.5;exitY=0;exitDx=0;exitDy=0;entryX=1;entryY=1;entryDx=0;entryDy=0;fontSize=12;startSize=8;endSize=8;" edge="1" parent="1" source="zpDfuHJKqXzspEZUBGu4-63" target="zpDfuHJKqXzspEZUBGu4-17">
          <mxGeometry relative="1" as="geometry" />
        </mxCell>
        <mxCell id="zpDfuHJKqXzspEZUBGu4-63" value="&lt;div&gt;nabavlja&lt;/div&gt;&lt;div&gt;se&lt;br&gt;&lt;/div&gt;" style="shape=rhombus;double=1;perimeter=rhombusPerimeter;whiteSpace=wrap;html=1;align=center;fontSize=16;" vertex="1" parent="1">
          <mxGeometry x="640" y="315" width="120" height="60" as="geometry" />
        </mxCell>
        <mxCell id="zpDfuHJKqXzspEZUBGu4-66" value="0, N" style="text;html=1;align=center;verticalAlign=middle;resizable=0;points=[];autosize=1;strokeColor=none;fillColor=none;fontSize=16;" vertex="1" parent="1">
          <mxGeometry x="615" y="178" width="50" height="30" as="geometry" />
        </mxCell>
        <mxCell id="zpDfuHJKqXzspEZUBGu4-74" style="edgeStyle=none;curved=1;rounded=0;orthogonalLoop=1;jettySize=auto;html=1;exitX=0.5;exitY=0;exitDx=0;exitDy=0;entryX=0.5;entryY=1;entryDx=0;entryDy=0;fontSize=12;startSize=8;endSize=8;" edge="1" parent="1" source="zpDfuHJKqXzspEZUBGu4-67" target="zpDfuHJKqXzspEZUBGu4-62">
          <mxGeometry relative="1" as="geometry" />
        </mxCell>
        <mxCell id="zpDfuHJKqXzspEZUBGu4-67" value="nabavlja" style="shape=rhombus;perimeter=rhombusPerimeter;whiteSpace=wrap;html=1;align=center;fontSize=16;" vertex="1" parent="1">
          <mxGeometry x="640" y="880" width="120" height="60" as="geometry" />
        </mxCell>
        <mxCell id="zpDfuHJKqXzspEZUBGu4-75" value="1, 1" style="text;html=1;align=center;verticalAlign=middle;resizable=0;points=[];autosize=1;strokeColor=none;fillColor=none;fontSize=16;" vertex="1" parent="1">
          <mxGeometry x="700" y="505" width="50" height="30" as="geometry" />
        </mxCell>
        <mxCell id="zpDfuHJKqXzspEZUBGu4-76" value="0, N" style="text;html=1;align=center;verticalAlign=middle;resizable=0;points=[];autosize=1;strokeColor=none;fillColor=none;fontSize=16;" vertex="1" parent="1">
          <mxGeometry x="130" y="880" width="50" height="30" as="geometry" />
        </mxCell>
        <mxCell id="zpDfuHJKqXzspEZUBGu4-77" value="idfk" style="ellipse;whiteSpace=wrap;html=1;align=center;fontStyle=4;fontSize=16;" vertex="1" parent="1">
          <mxGeometry x="240" y="85" width="100" height="40" as="geometry" />
        </mxCell>
        <mxCell id="zpDfuHJKqXzspEZUBGu4-78" value="nazfk" style="ellipse;whiteSpace=wrap;html=1;align=center;fontSize=16;" vertex="1" parent="1">
          <mxGeometry x="240" y="45" width="100" height="40" as="geometry" />
        </mxCell>
        <mxCell id="zpDfuHJKqXzspEZUBGu4-79" value="datsklapug" style="ellipse;whiteSpace=wrap;html=1;align=center;fontSize=16;" vertex="1" parent="1">
          <mxGeometry x="140" y="230" width="100" height="40" as="geometry" />
        </mxCell>
        <mxCell id="zpDfuHJKqXzspEZUBGu4-80" value="datistekug" style="ellipse;whiteSpace=wrap;html=1;align=center;fontSize=16;" vertex="1" parent="1">
          <mxGeometry x="140" y="270" width="100" height="40" as="geometry" />
        </mxCell>
        <mxCell id="zpDfuHJKqXzspEZUBGu4-81" value="idapot" style="ellipse;whiteSpace=wrap;html=1;align=center;fontStyle=4;fontSize=16;" vertex="1" parent="1">
          <mxGeometry x="130" y="345" width="100" height="40" as="geometry" />
        </mxCell>
        <mxCell id="zpDfuHJKqXzspEZUBGu4-82" value="nazapot" style="ellipse;whiteSpace=wrap;html=1;align=center;fontSize=16;" vertex="1" parent="1">
          <mxGeometry x="130" y="385" width="100" height="40" as="geometry" />
        </mxCell>
        <mxCell id="zpDfuHJKqXzspEZUBGu4-83" value="adrapot" style="ellipse;whiteSpace=wrap;html=1;align=center;fontSize=16;" vertex="1" parent="1">
          <mxGeometry x="130" y="425" width="100" height="40" as="geometry" />
        </mxCell>
        <mxCell id="zpDfuHJKqXzspEZUBGu4-84" value="jmbgfr" style="ellipse;whiteSpace=wrap;html=1;align=center;fontStyle=4;fontSize=16;" vertex="1" parent="1">
          <mxGeometry x="160" y="530" width="100" height="40" as="geometry" />
        </mxCell>
        <mxCell id="zpDfuHJKqXzspEZUBGu4-85" value="imefr" style="ellipse;whiteSpace=wrap;html=1;align=center;fontSize=16;" vertex="1" parent="1">
          <mxGeometry x="130" y="570" width="100" height="40" as="geometry" />
        </mxCell>
        <mxCell id="zpDfuHJKqXzspEZUBGu4-86" value="prezfr" style="ellipse;whiteSpace=wrap;html=1;align=center;fontSize=16;" vertex="1" parent="1">
          <mxGeometry x="130" y="610" width="100" height="40" as="geometry" />
        </mxCell>
        <mxCell id="zpDfuHJKqXzspEZUBGu4-87" value="pltfr" style="ellipse;whiteSpace=wrap;html=1;align=center;fontSize=16;" vertex="1" parent="1">
          <mxGeometry x="60" y="535" width="100" height="40" as="geometry" />
        </mxCell>
        <mxCell id="zpDfuHJKqXzspEZUBGu4-88" value="tiprad" style="ellipse;whiteSpace=wrap;html=1;align=center;fontSize=16;" vertex="1" parent="1">
          <mxGeometry x="320" y="660" width="100" height="40" as="geometry" />
        </mxCell>
        <mxCell id="zpDfuHJKqXzspEZUBGu4-89" value="idlek" style="ellipse;whiteSpace=wrap;html=1;align=center;fontStyle=4;fontSize=16;" vertex="1" parent="1">
          <mxGeometry x="520" y="90" width="100" height="40" as="geometry" />
        </mxCell>
        <mxCell id="zpDfuHJKqXzspEZUBGu4-90" value="nazlek" style="ellipse;whiteSpace=wrap;html=1;align=center;fontSize=16;" vertex="1" parent="1">
          <mxGeometry x="620" y="88" width="100" height="40" as="geometry" />
        </mxCell>
        <mxCell id="zpDfuHJKqXzspEZUBGu4-91" value="brojlicfi" style="ellipse;whiteSpace=wrap;html=1;align=center;fontSize=16;" vertex="1" parent="1">
          <mxGeometry x="230" y="840" width="100" height="40" as="geometry" />
        </mxCell>
        <mxCell id="zpDfuHJKqXzspEZUBGu4-92" value="kolnab" style="ellipse;whiteSpace=wrap;html=1;align=center;fontSize=16;" vertex="1" parent="1">
          <mxGeometry x="710" y="420" width="100" height="40" as="geometry" />
        </mxCell>
        <mxCell id="zpDfuHJKqXzspEZUBGu4-93" value="datnab" style="ellipse;whiteSpace=wrap;html=1;align=center;fontStyle=4;fontSize=16;" vertex="1" parent="1">
          <mxGeometry x="750" y="460" width="100" height="40" as="geometry" />
        </mxCell>
        <mxCell id="zpDfuHJKqXzspEZUBGu4-94" value="nabcena" style="ellipse;whiteSpace=wrap;html=1;align=center;fontSize=16;" vertex="1" parent="1">
          <mxGeometry x="590" y="420" width="100" height="40" as="geometry" />
        </mxCell>
        <mxCell id="zpDfuHJKqXzspEZUBGu4-95" value="roktrajanja" style="ellipse;whiteSpace=wrap;html=1;align=center;fontSize=16;" vertex="1" parent="1">
          <mxGeometry x="550" y="460" width="100" height="40" as="geometry" />
        </mxCell>
      </root>
    </mxGraphModel>
  </diagram>
</mxfile>
